<svg xmlns="http://www.w3.org/2000/svg" xmlns:xlink="http://www.w3.org/1999/xlink" viewBox="0 0 23.018 23.018">
  <defs>
    <clipPath id="clip-path">
      <rect id="長方形_16" data-name="長方形 16" width="23.018" height="23.018" fill="none"/>
    </clipPath>
  </defs>
  <g id="グループ_21" data-name="グループ 21" transform="translate(0 0)">
    <g id="グループ_20" data-name="グループ 20" transform="translate(0 0)" clip-path="url(#clip-path)">
      <path id="パス_42" data-name="パス 42" d="M15.339,14.445a.078.078,0,0,1-.056-.132l3.857-3.856a.079.079,0,0,1,.111,0,.08.08,0,0,1,0,.109l-3.856,3.856a.077.077,0,0,1-.055.023" transform="translate(2.312 1.58)" fill="#ea0000"/>
      <path id="パス_43" data-name="パス 43" d="M5.178,14.445a.077.077,0,0,1-.056-.023L1.267,10.565a.08.08,0,0,1,0-.109.079.079,0,0,1,.111,0l3.856,3.856a.08.08,0,0,1,0,.109.077.077,0,0,1-.055.023" transform="translate(0.189 1.58)" fill="#ea0000"/>
      <path id="パス_44" data-name="パス 44" d="M5.313,7.163a2.4,2.4,0,0,0,.809-.242L3.494,4.291a4.138,4.138,0,0,0,.059,2.423,1.921,1.921,0,0,0,.374.268,2.733,2.733,0,0,0,1.386.181" transform="translate(0.506 0.65)" fill="#ea0000"/>
      <path id="パス_45" data-name="パス 45" d="M10.168,3.173,9.9,2.9A4.1,4.1,0,0,0,6.148,1.8L8.84,4.5Z" transform="translate(0.931 0.259)" fill="#ea0000"/>
      <path id="パス_46" data-name="パス 46" d="M5.867,9.177a3.457,3.457,0,0,0,2.249-.286A6.18,6.18,0,0,0,9.29,8l.124-.111L15.5,1.836a4.106,4.106,0,0,0-3.529.746l-.177.159a1.39,1.39,0,0,0-.144.14l-3.6,3.6c-.048.05-.1.107-.153.164l-.38.38a4.051,4.051,0,0,1-2.247,1.13c-.142.009-.284.016-.43.016a3.108,3.108,0,0,1-.92-.124,4.051,4.051,0,0,0,.509.63l.153.071a5.525,5.525,0,0,0,1.289.431" transform="translate(0.593 0.259)" fill="#ea0000"/>
      <path id="パス_47" data-name="パス 47" d="M7.442,6.15c.045-.05.1-.113.164-.173l.643-.641L5.163,2.248a4.151,4.151,0,0,0-.729.576,4.033,4.033,0,0,0-.443.533L7.113,6.481Z" transform="translate(0.605 0.34)" fill="#ea0000"/>
      <path id="パス_48" data-name="パス 48" d="M7.607,11.134a3.437,3.437,0,0,0,2.244-.286,6.449,6.449,0,0,0,1.187-.895c.052-.045.076-.07.1-.092L17.6,3.44a3.972,3.972,0,0,0-.51-.625h0a3.9,3.9,0,0,0-.619-.507L9.858,8.87a7.543,7.543,0,0,1-1.48,1.1,4.476,4.476,0,0,1-2.067.48c-.111,0-.229-.008-.348-.014l.191.191.167.077a5.563,5.563,0,0,0,1.285.431" transform="translate(0.903 0.349)" fill="#ea0000"/>
      <path id="パス_49" data-name="パス 49" d="M11.775,10.471c-.048.048-.1.1-.161.147A7.049,7.049,0,0,1,10.144,11.7a4.44,4.44,0,0,1-2.055.477c-.1,0-.207-.007-.312-.013a4.117,4.117,0,0,0,5.452-.3l.008-.01,3.572-3.568A4.1,4.1,0,0,0,17.88,4.4Z" transform="translate(1.178 0.666)" fill="#ea0000"/>
    </g>
  </g>
</svg>
