<svg id="グループ_113" data-name="グループ 113" xmlns="http://www.w3.org/2000/svg" xmlns:xlink="http://www.w3.org/1999/xlink" width="177.556" height="77.472" viewBox="0 0 177.556 77.472">
  <defs>
    <clipPath id="clip-path">
      <rect id="長方形_39" data-name="長方形 39" width="177.556" height="77.472" fill="none"/>
    </clipPath>
  </defs>
  <g id="グループ_112" data-name="グループ 112" clip-path="url(#clip-path)">
    <path id="パス_68" data-name="パス 68" d="M292.035,93.5a2.318,2.318,0,0,0-3.276.094L285.821,96.7V86.026a3.828,3.828,0,0,0-7.655,0v16a3.818,3.818,0,0,0,7.041,2.056l6.918-7.31a2.318,2.318,0,0,0-.09-3.281" transform="translate(-119.994 -35.46)" fill="#ea0000"/>
    <path id="パス_69" data-name="パス 69" d="M259.683,103.4a3.133,3.133,0,0,0-3.132,3.13v4.028a3.131,3.131,0,1,0,6.262,0v-4.028a3.131,3.131,0,0,0-3.13-3.13" transform="translate(-110.67 -44.606)" fill="#ea0000"/>
    <path id="パス_70" data-name="パス 70" d="M213.088,82.055H193.4a3.246,3.246,0,0,0,0,6.493h12.505l-12.136,13.812a2.667,2.667,0,1,0,4.008,3.52l15.227-17.332h.08a3.246,3.246,0,1,0,0-6.493" transform="translate(-82.031 -35.396)" fill="#ea0000"/>
    <path id="パス_71" data-name="パス 71" d="M216.961,14.772a3.014,3.014,0,0,0-3.014-3.014H192.787a3.014,3.014,0,1,0,0,6.027h15.56l-3.284,4.084a2.772,2.772,0,0,0-3.73.926L194.576,33.53a2.783,2.783,0,0,0,4.709,2.967l6.525-10.373a2.794,2.794,0,0,0,3.532-.686L216.118,17a2.624,2.624,0,0,0,.353-.593,2.987,2.987,0,0,0,.49-1.639" transform="translate(-81.863 -5.072)" fill="#ea0000"/>
    <path id="パス_72" data-name="パス 72" d="M279.278,12.478a2.775,2.775,0,0,0-3.931,0L256.095,31.744a2.781,2.781,0,0,0,3.933,3.932l10.116-10.12a2.969,2.969,0,0,0-.524,1.7v8.384a3.016,3.016,0,0,0,6.031,0V27.252a3.012,3.012,0,0,0-4.717-2.485l8.345-8.353a2.783,2.783,0,0,0,0-3.935" transform="translate(-110.12 -5.03)" fill="#ea0000"/>
    <path id="パス_73" data-name="パス 73" d="M104.28,84.61a.279.279,0,0,1-.185-.074.264.264,0,0,1,0-.368l12.983-12.981a.264.264,0,0,1,.372,0,.274.274,0,0,1,0,.371L104.464,84.536a.258.258,0,0,1-.183.074" transform="translate(-44.872 -30.675)" fill="#ea0000"/>
    <path id="パス_74" data-name="パス 74" d="M21.724,84.61a.278.278,0,0,1-.186-.074L8.562,71.558a.254.254,0,0,1,0-.371.264.264,0,0,1,.372,0L21.908,84.167a.264.264,0,0,1,0,.368.27.27,0,0,1-.185.074" transform="translate(-3.659 -30.675)" fill="#ea0000"/>
    <path id="パス_75" data-name="パス 75" d="M29.411,38.906a8.141,8.141,0,0,0,2.727-.814l-8.85-8.854a13.983,13.983,0,0,0,.2,8.156,6.9,6.9,0,0,0,1.259.906,9.242,9.242,0,0,0,4.664.605" transform="translate(-9.825 -12.613)" fill="#ea0000"/>
    <path id="パス_76" data-name="パス 76" d="M55.433,16.586l-.906-.9a13.778,13.778,0,0,0-12.621-3.711l9.061,9.074Z" transform="translate(-18.077 -5.035)" fill="#ea0000"/>
    <path id="パス_77" data-name="パス 77" d="M33.266,36.8a11.6,11.6,0,0,0,7.564-.962,20.739,20.739,0,0,0,3.954-3l.422-.369L65.68,12.09A13.816,13.816,0,0,0,53.808,14.6l-.6.541a6.046,6.046,0,0,0-.485.469L40.594,27.718c-.16.168-.346.36-.513.554L38.8,29.55a13.671,13.671,0,0,1-7.561,3.8c-.473.032-.958.051-1.446.051a10.466,10.466,0,0,1-3.091-.415,13.633,13.633,0,0,0,1.715,2.12l.514.237A18.559,18.559,0,0,0,33.266,36.8" transform="translate(-11.518 -5.037)" fill="#ea0000"/>
    <path id="パス_78" data-name="パス 78" d="M38.823,28.456c.14-.168.341-.381.54-.586l2.165-2.16L31.15,15.317a13.7,13.7,0,0,0-2.459,1.936v0a13.88,13.88,0,0,0-1.5,1.792L37.7,29.565Z" transform="translate(-11.731 -6.607)" fill="#ea0000"/>
    <path id="パス_79" data-name="パス 79" d="M46.182,45.437a11.574,11.574,0,0,0,7.555-.964,21.519,21.519,0,0,0,3.989-3.012c.177-.151.26-.235.338-.3L79.8,19.541a13.62,13.62,0,0,0-1.722-2.105v0A13.591,13.591,0,0,0,76,15.733L53.761,37.818a25.28,25.28,0,0,1-4.986,3.695,15.028,15.028,0,0,1-6.954,1.615c-.374,0-.77-.024-1.171-.043l.646.641.562.26a18.583,18.583,0,0,0,4.324,1.451" transform="translate(-17.535 -6.787)" fill="#ea0000"/>
    <path id="パス_80" data-name="パス 80" d="M66.466,50.422c-.159.161-.337.321-.544.5a23.716,23.716,0,0,1-4.943,3.647,14.972,14.972,0,0,1-6.918,1.6c-.337,0-.7-.024-1.054-.044A13.851,13.851,0,0,0,71.362,55.12l.023-.037L83.41,43.075a13.8,13.8,0,0,0,3.6-13.083Z" transform="translate(-22.866 -12.938)" fill="#ea0000"/>
  </g>
</svg>
